<?xml version="1.0" encoding="utf-8"?>
<!-- Generator: Adobe Illustrator 24.1.1, SVG Export Plug-In . SVG Version: 6.00 Build 0)  -->
<svg version="1.1" id="Layer_1" xmlns="http://www.w3.org/2000/svg" xmlns:xlink="http://www.w3.org/1999/xlink" x="0px" y="0px"
	 viewBox="0 0 512 512" style="enable-background:new 0 0 512 512;" xml:space="preserve">
<g>
	<path fill="#306685" d="M121.9,341.6L121.9,341.6c13.5,0,24.4-10.9,24.4-24.4c0-13.5-10.9-24.4-24.4-24.4h0c-13.5,0-24.4,10.9-24.4,24.4
		C97.5,330.7,108.4,341.6,121.9,341.6z M0,317.1L0,317.1c0,13.5,10.9,24.4,24.4,24.4s24.4-10.9,24.4-24.4v0
		c0-13.5-10.9-24.4-24.4-24.4S0,303.7,0,317.1z M0,219.6L0,219.6C0,233.1,10.9,244,24.4,244s24.4-10.9,24.4-24.4v0
		c0-13.5-10.9-24.4-24.4-24.4S0,206.1,0,219.6z M0,122L0,122c0,13.5,10.9,24.4,24.4,24.4s24.4-10.9,24.4-24.4v0
		c0-13.5-10.9-24.4-24.4-24.4S0,108.6,0,122z M0,24.5L0,24.5C0,38,10.9,48.9,24.4,48.9S48.8,38,48.8,24.5v0
		C48.8,11,37.8,0.1,24.4,0.1S0,11,0,24.5z M121.8,0L121.8,0c-13.5,0-24.4,10.9-24.4,24.4c0,13.5,10.9,24.4,24.4,24.4h0
		c13.5,0,24.4-10.9,24.4-24.4C146.2,10.9,135.3,0,121.8,0z M219.4,0L219.4,0C205.9,0,195,10.9,195,24.4c0,13.5,10.9,24.4,24.4,24.4
		h0c13.5,0,24.4-10.9,24.4-24.4C243.8,10.9,232.8,0,219.4,0z M316.9,0L316.9,0c-13.5,0-24.4,10.9-24.4,24.4
		c0,13.5,10.9,24.4,24.4,24.4h0c13.5,0,24.4-10.9,24.4-24.4C341.3,10.9,330.4,0,316.9,0z M341.3,121.9L341.3,121.9
		c0-13.5-10.9-24.4-24.4-24.4s-24.4,10.9-24.4,24.4v0c0,13.5,10.9,24.4,24.4,24.4S341.3,135.4,341.3,121.9z"/>
	<path fill="#306685" d="M438.9,219.4v-48.8c0-40.4-32.7-73.1-73.1-73.1h-195c-40.4,0-73.1,32.7-73.1,73.1v195c0,40.4,32.7,73.1,73.1,73.1l48.8,0
		c13.5,0,24.4-10.9,24.4-24.4c0-13.5-10.9-24.4-24.4-24.4h-48.8c-13.5,0-24.4-10.9-24.4-24.4l0-195c0-13.5,10.9-24.4,24.4-24.4
		l195,0c13.5,0,24.4,10.9,24.4,24.4v48.8c0,13.5,10.9,24.4,24.4,24.4S438.9,232.9,438.9,219.4z"/>
	<path fill="#306685" d="M260.5,291.3l163.6,54.5l-44.9,22.4c-4.8,2.4-8.5,6.1-10.9,10.9l-22.4,44.9l-54.5-163.6c-4.3-12.8-18.1-19.7-30.8-15.4
		c-12.8,4.3-19.7,18.1-15.4,30.8l73.1,219.4c3.1,9.4,11.6,15.9,21.4,16.6c9.8,0.7,19.1-4.6,23.5-13.4l45.1-90.3l90.3-45.1
		c8.8-4.4,14.1-13.7,13.4-23.5c-0.7-9.8-7.3-18.3-16.6-21.4l-219.4-73.1c-12.8-4.3-26.6,2.6-30.8,15.4
		C240.8,273.3,247.7,287.1,260.5,291.3L260.5,291.3z"/>
</g>
</svg>
